<?xml version="1.0" encoding="utf-8"?>
<!-- Generator: Adobe Illustrator 19.2.1, SVG Export Plug-In . SVG Version: 6.00 Build 0)  -->
<svg version="1.1" id="Layer_1" xmlns="http://www.w3.org/2000/svg" xmlns:xlink="http://www.w3.org/1999/xlink" x="0px" y="0px"
	 viewBox="0 0 20 20" style="enable-background:new 0 0 20 20;" xml:space="preserve">
<style type="text/css">
	.st0{fill:#2E6CCB;}
</style>
<path class="st0" d="M17,0H3C1.3,0,0,1.3,0,3v14c0,1.6,1.3,3,3,3h14c1.7,0,3-1.4,3-3V3C20,1.3,18.7,0,17,0z M6.9,12.7l-1.4,1.6
	l-3.7-4.1l3.7-4.1l1.4,1.6l-2.3,2.5L6.9,12.7z M9.9,15.5l-2.2-0.6L10,4.8l2.2,0.6L9.9,15.5z M14.5,14.2l-1.4-1.6l2.3-2.5l-2.3-2.5
	l1.4-1.6l3.7,4.1L14.5,14.2z"/>
</svg>
